<svg width="35" height="32" viewBox="0 0 35 32" fill="none" xmlns="http://www.w3.org/2000/svg">
<path d="M15.0085 24.1996H9.5755C8.98776 24.1996 8.50037 23.7463 8.50037 23.1996V16.3729C8.50037 14.9863 9.71884 13.8528 11.2097 13.8528H15.0085C15.5963 13.8528 16.0837 14.3061 16.0837 14.8528V23.1862C16.0837 23.7462 15.5963 24.1996 15.0085 24.1996ZM10.6506 22.1996H13.9334V15.8663H11.2097C10.9087 15.8663 10.6506 16.0928 10.6506 16.3861V22.1996Z" fill="white"/>
<path d="M20.4262 24.1996H14.9932C14.4055 24.1996 13.9181 23.7463 13.9181 23.1996V10.3195C13.9181 8.93282 15.1365 7.79947 16.6274 7.79947H18.8063C20.2972 7.79947 21.5157 8.93282 21.5157 10.3195V23.1996C21.5013 23.7463 21.0283 24.1996 20.4262 24.1996ZM16.0827 22.1996H19.3654V10.3195C19.3654 10.0395 19.1217 9.79947 18.8063 9.79947H16.6274C16.3264 9.79947 16.0683 10.0261 16.0683 10.3195V22.1996H16.0827Z" fill="white"/>
<path d="M25.8606 24.1996H20.4276C19.8399 24.1996 19.3525 23.7463 19.3525 23.1996V17.1328C19.3525 16.5861 19.8399 16.1328 20.4276 16.1328H24.2264C25.7173 16.1328 26.9358 17.2661 26.9358 18.6528V23.1996C26.9358 23.7463 26.4627 24.1996 25.8606 24.1996ZM21.5028 22.1996H24.7855V18.6528C24.7855 18.3728 24.5418 18.1328 24.2264 18.1328H21.5028V22.1996Z" fill="white"/>
<path d="M22.018 30.3333H13.4169C5.63289 30.3333 2.30713 27.24 2.30713 20V12C2.30713 4.75999 5.63289 1.66666 13.4169 1.66666H22.018C29.802 1.66666 33.1277 4.75999 33.1277 12V20C33.1277 27.24 29.802 30.3333 22.018 30.3333ZM13.4169 3.66666C6.80837 3.66666 4.4574 5.85332 4.4574 12V20C4.4574 26.1467 6.80837 28.3333 13.4169 28.3333H22.018C28.6265 28.3333 30.9775 26.1467 30.9775 20V12C30.9775 5.85332 28.6265 3.66666 22.018 3.66666H13.4169Z" fill="white"/>
</svg>
