<svg width="36" height="32" viewBox="0 0 36 32" fill="none" xmlns="http://www.w3.org/2000/svg">
<path d="M28.6464 10.56V17.4267C28.6464 21.5333 26.0492 23.2933 22.1534 23.2933H9.18212C8.51807 23.2933 7.88354 23.24 7.29327 23.12C6.92435 23.0667 6.57018 22.9733 6.24553 22.8667C4.03202 22.12 2.68915 20.3867 2.68915 17.4267V10.56C2.68915 6.45331 5.28633 4.69336 9.18212 4.69336H22.1534C25.4589 4.69336 27.8348 5.96001 28.4693 8.85335C28.5726 9.38668 28.6464 9.93331 28.6464 10.56Z" stroke="white" stroke-width="2" stroke-miterlimit="10" stroke-linecap="round" stroke-linejoin="round"/>
<path d="M33.0751 14.5601V21.4268C33.0751 25.5335 30.4779 27.2935 26.5821 27.2935H13.6109C12.5189 27.2935 11.5302 27.1601 10.6743 26.8668C8.91821 26.2801 7.7229 25.0668 7.29495 23.1201C7.88522 23.2401 8.51977 23.2935 9.18382 23.2935H22.1551C26.0509 23.2935 28.6481 21.5335 28.6481 17.4268V10.5601C28.6481 9.93346 28.5891 9.37352 28.471 8.85352C31.2748 9.38685 33.0751 11.1735 33.0751 14.5601Z" stroke="white" stroke-width="2" stroke-miterlimit="10" stroke-linecap="round" stroke-linejoin="round"/>
<path d="M15.6579 17.5198C17.8094 17.5198 19.5537 15.9438 19.5537 13.9999C19.5537 12.0558 17.8094 10.4798 15.6579 10.4798C13.5063 10.4798 11.7621 12.0558 11.7621 13.9999C11.7621 15.9438 13.5063 17.5198 15.6579 17.5198Z" stroke="white" stroke-width="2" stroke-miterlimit="10" stroke-linecap="round" stroke-linejoin="round"/>
<path d="M7.21936 11.0667V16.9334" stroke="white" stroke-width="2" stroke-miterlimit="10" stroke-linecap="round" stroke-linejoin="round"/>
<path d="M24.1039 11.0671V16.9338" stroke="white" stroke-width="2" stroke-miterlimit="10" stroke-linecap="round" stroke-linejoin="round"/>
</svg>
