<?xml version="1.0" standalone="no"?>
<!DOCTYPE svg PUBLIC "-//W3C//DTD SVG 20010904//EN"
 "http://www.w3.org/TR/2001/REC-SVG-20010904/DTD/svg10.dtd">
<svg version="1.0" xmlns="http://www.w3.org/2000/svg"
 width="107.000000pt" height="108.000000pt" viewBox="0 0 107.000000 108.000000"
 preserveAspectRatio="xMidYMid meet">

<g transform="translate(0.000000,108.000000) scale(0.100000,-0.100000)"
fill="#000000" stroke="none">
<path d="M689 950 c-15 -28 -23 -50 -18 -50 20 0 -26 -52 -71 -81 -26 -17 -53
-42 -59 -56 l-11 -24 52 27 c29 16 62 35 73 44 18 14 19 14 7 -1 -11 -15 -8
-18 25 -24 88 -16 243 -123 240 -165 -1 -15 -5 -16 -24 -7 -32 15 -40 1 -15
-26 11 -12 32 -47 46 -77 l25 -55 0 41 c2 122 -50 248 -139 335 -33 32 -72 62
-86 65 -25 6 -26 9 -20 55 4 27 5 49 4 49 -2 0 -15 -23 -29 -50z m21 -69 c0
-5 -9 -19 -20 -32 l-20 -24 17 32 c19 34 23 39 23 24z"/>
<path d="M405 946 c-126 -32 -246 -128 -298 -238 -34 -73 -55 -184 -39 -200 7
-7 12 -17 12 -22 0 -6 -4 -4 -10 4 -17 28 -23 0 -11 -57 47 -235 259 -399 490
-379 124 10 218 64 264 151 33 62 31 181 -5 257 -51 109 -152 178 -280 193
l-53 6 35 -29 c19 -17 33 -33 30 -35 -3 -3 -30 -1 -60 4 -88 15 -206 -8 -260
-51 l-25 -20 25 -21 25 -20 -25 12 c-14 7 -30 12 -37 11 -6 -1 -13 7 -15 18
-3 19 -5 18 -35 -10 -18 -16 -35 -30 -39 -30 -4 0 -4 30 -1 67 20 207 203 373
411 373 74 0 100 -12 72 -33 -10 -8 -17 -20 -14 -27 3 -10 18 -2 48 27 l44 41
-53 11 c-65 14 -132 13 -196 -3z m23 -413 c-16 -2 -40 -2 -55 0 -16 2 -3 4 27
4 30 0 43 -2 28 -4z m-97 -12 c-8 -5 -10 -14 -6 -22 6 -11 5 -11 -5 -2 -14 12
-6 33 13 33 8 0 7 -3 -2 -9z m183 -2 c14 -7 28 -19 31 -27 5 -14 3 -14 -12 1
-10 9 -30 20 -43 26 -14 5 -20 10 -13 10 7 1 23 -4 37 -10z m-205 -45 c10 -9
-35 -3 -49 6 -11 8 -7 9 15 4 17 -4 32 -8 34 -10z m-209 -24 c6 -11 8 -20 6
-20 -3 0 -10 9 -16 20 -6 11 -8 20 -6 20 3 0 10 -9 16 -20z m457 -32 c-2 -13
-4 -5 -4 17 -1 22 1 32 4 23 2 -10 2 -28 0 -40z m-357 -85 c0 -9 -39 25 -64
56 -26 32 -24 31 17 -9 26 -24 47 -46 47 -47z m340 38 c-10 -20 -62 -61 -76
-61 -5 0 8 11 27 25 20 13 39 31 42 40 4 8 9 15 12 15 3 0 1 -9 -5 -19z m-239
-71 c12 0 20 -3 16 -6 -9 -10 -71 4 -93 21 -17 13 -14 13 18 0 21 -8 47 -15
59 -15z m139 0 c-8 -5 -26 -9 -40 -9 -23 1 -23 2 5 9 43 11 52 11 35 0z"/>
<path d="M453 766 c-15 -12 -35 -26 -43 -29 -10 -3 -7 -6 8 -6 30 -1 59 14 72
39 15 27 -2 25 -37 -4z"/>
<path d="M780 672 c41 -20 77 -39 80 -42 6 -6 60 -10 60 -4 0 10 -93 62 -104
58 -6 -2 -31 2 -55 11 -67 23 -63 18 19 -23z"/>
<path d="M235 640 c-3 -5 -1 -10 4 -10 6 0 11 5 11 10 0 6 -2 10 -4 10 -3 0
-8 -4 -11 -10z"/>
</g>
</svg>
