<svg width="20" height="20" viewBox="0 0 20 20" fill="none" xmlns="http://www.w3.org/2000/svg">
<path d="M12.5 18.9583H7.50002C2.97502 18.9583 1.04169 17.025 1.04169 12.5V7.49999C1.04169 2.97499 2.97502 1.04166 7.50002 1.04166H12.5C17.025 1.04166 18.9584 2.97499 18.9584 7.49999V12.5C18.9584 17.025 17.025 18.9583 12.5 18.9583ZM7.50002 2.29166C3.65835 2.29166 2.29169 3.65832 2.29169 7.49999V12.5C2.29169 16.3417 3.65835 17.7083 7.50002 17.7083H12.5C16.3417 17.7083 17.7084 16.3417 17.7084 12.5V7.49999C17.7084 3.65832 16.3417 2.29166 12.5 2.29166H7.50002Z" fill="white"/>
<path d="M12.9834 16.0417C12.6417 16.0417 12.3584 15.7584 12.3584 15.4167V12.1667C12.3584 11.8251 12.6417 11.5417 12.9834 11.5417C13.3251 11.5417 13.6084 11.8251 13.6084 12.1667V15.4167C13.6084 15.7584 13.3251 16.0417 12.9834 16.0417Z" fill="white"/>
<path d="M12.9834 6.83334C12.6417 6.83334 12.3584 6.55001 12.3584 6.20834V4.58334C12.3584 4.24168 12.6417 3.95834 12.9834 3.95834C13.3251 3.95834 13.6084 4.24168 13.6084 4.58334V6.20834C13.6084 6.55001 13.3251 6.83334 12.9834 6.83334Z" fill="white"/>
<path d="M12.9837 11.1668C11.4421 11.1668 10.1921 9.91683 10.1921 8.37516C10.1921 6.8335 11.4421 5.5835 12.9837 5.5835C14.5254 5.5835 15.7754 6.8335 15.7754 8.37516C15.7754 9.91683 14.5171 11.1668 12.9837 11.1668ZM12.9837 6.8335C12.1337 6.8335 11.4421 7.52516 11.4421 8.37516C11.4421 9.22516 12.1337 9.91683 12.9837 9.91683C13.8337 9.91683 14.5254 9.22516 14.5254 8.37516C14.5254 7.52516 13.8254 6.8335 12.9837 6.8335Z" fill="white"/>
<path d="M7.0166 16.0415C6.67493 16.0415 6.3916 15.7582 6.3916 15.4165V13.7915C6.3916 13.4498 6.67493 13.1665 7.0166 13.1665C7.35827 13.1665 7.6416 13.4498 7.6416 13.7915V15.4165C7.6416 15.7582 7.3666 16.0415 7.0166 16.0415Z" fill="white"/>
<path d="M7.0166 8.45834C6.67493 8.45834 6.3916 8.17501 6.3916 7.83334V4.58334C6.3916 4.24168 6.67493 3.95834 7.0166 3.95834C7.35827 3.95834 7.6416 4.24168 7.6416 4.58334V7.83334C7.6416 8.17501 7.3666 8.45834 7.0166 8.45834Z" fill="white"/>
<path d="M7.01695 14.4167C5.47528 14.4167 4.22528 13.1667 4.22528 11.6251C4.22528 10.0834 5.47528 8.8334 7.01695 8.8334C8.55861 8.8334 9.80861 10.0834 9.80861 11.6251C9.80861 13.1667 8.55861 14.4167 7.01695 14.4167ZM7.01695 10.0834C6.16695 10.0834 5.47528 10.7751 5.47528 11.6251C5.47528 12.4751 6.16695 13.1667 7.01695 13.1667C7.86695 13.1667 8.55861 12.4751 8.55861 11.6251C8.55861 10.7751 7.87528 10.0834 7.01695 10.0834Z" fill="white"/>
</svg>
