<svg width="34" height="32" viewBox="0 0 34 32" fill="none" xmlns="http://www.w3.org/2000/svg">
<path d="M10.2805 30.3328C6.96907 30.3328 4.25598 28.0261 4.25598 25.1861V22.4661C4.25598 21.9195 4.72904 21.4661 5.2995 21.4661C5.86995 21.4661 6.34301 21.9195 6.34301 22.4661C6.34301 24.1328 8.0265 25.3861 10.2805 25.3861C12.5345 25.3861 14.218 24.1328 14.218 22.4661C14.218 21.9195 14.6911 21.4661 15.2615 21.4661C15.832 21.4661 16.3051 21.9195 16.3051 22.4661V25.1861C16.3051 28.0261 13.6058 30.3328 10.2805 30.3328ZM6.7047 26.4928C7.31689 27.5861 8.69434 28.3328 10.2805 28.3328C11.8666 28.3328 13.2441 27.5728 13.8563 26.4928C12.8684 27.0661 11.644 27.3995 10.2805 27.3995C8.91696 27.3995 7.69256 27.0661 6.7047 26.4928Z" fill="white"/>
<path d="M10.2805 23.7325C7.99867 23.7325 5.95342 22.7325 4.93773 21.1459C4.4925 20.4525 4.25598 19.6392 4.25598 18.8125C4.25598 17.4125 4.89599 16.1059 6.06473 15.1325C8.31872 13.2392 12.2006 13.2393 14.4685 15.1193C15.6372 16.106 16.2911 17.4125 16.2911 18.8125C16.2911 19.6392 16.0546 20.4525 15.6094 21.1459C14.6076 22.7325 12.5623 23.7325 10.2805 23.7325ZM10.2805 15.666C9.19523 15.666 8.19349 16.0125 7.44215 16.6392C6.73256 17.2259 6.34301 17.9992 6.34301 18.8125C6.34301 19.2792 6.46818 19.706 6.71862 20.106C7.35865 21.1193 8.72217 21.746 10.2805 21.746C11.8388 21.746 13.2023 21.1193 13.8284 20.1193C14.0789 19.7327 14.2041 19.2927 14.2041 18.826C14.2041 18.0127 13.8146 17.2392 13.105 16.6392C12.3676 16.0125 11.3657 15.666 10.2805 15.666Z" fill="white"/>
<path d="M10.2805 27.4C6.84384 27.4 4.25598 25.28 4.25598 22.48V18.8133C4.25598 15.9733 6.95515 13.6667 10.2805 13.6667C11.8527 13.6667 13.3554 14.1867 14.4824 15.12C15.6511 16.1067 16.3051 17.4133 16.3051 18.8133V22.48C16.3051 25.28 13.7171 27.4 10.2805 27.4ZM10.2805 15.6667C8.10998 15.6667 6.34301 17.08 6.34301 18.8133V22.48C6.34301 24.1467 8.0265 25.4 10.2805 25.4C12.5345 25.4 14.218 24.1467 14.218 22.48V18.8133C14.218 18 13.8285 17.2267 13.1189 16.6267C12.3676 16.0133 11.3657 15.6667 10.2805 15.6667Z" fill="white"/>
<path d="M26.796 19.7336C24.6951 19.7336 22.9141 18.2403 22.7472 16.3203C22.6359 15.2136 23.0533 14.1336 23.8881 13.3469C24.5837 12.6536 25.5716 12.2669 26.6151 12.2669H29.5231C30.9005 12.3069 31.9579 13.3469 31.9579 14.6269V17.3736C31.9579 18.6536 30.9005 19.6936 29.5648 19.7336H26.796ZM29.4813 14.2669H26.629C26.1421 14.2669 25.6968 14.4403 25.3768 14.7603C24.9733 15.1336 24.7785 15.6403 24.8342 16.1469C24.9038 17.0269 25.7942 17.7336 26.796 17.7336H29.5231C29.7039 17.7336 29.8709 17.5736 29.8709 17.3736V14.6269C29.8709 14.4269 29.7039 14.2803 29.4813 14.2669Z" fill="white"/>
<path d="M22.5667 28.3333H19.0883C18.5179 28.3333 18.0448 27.88 18.0448 27.3333C18.0448 26.7867 18.5179 26.3333 19.0883 26.3333H22.5667C26.1564 26.3333 28.48 24.1067 28.48 20.6667V19.7333H26.7964C24.6955 19.7333 22.9145 18.24 22.7476 16.32C22.6363 15.2133 23.0538 14.1333 23.8886 13.3467C24.5843 12.6533 25.572 12.2667 26.6155 12.2667H28.466V11.3333C28.466 8.21332 26.56 6.06663 23.4712 5.71996C23.1373 5.66663 22.845 5.66666 22.5528 5.66666H10.0306C9.69672 5.66666 9.37669 5.69331 9.05668 5.73331C5.9957 6.10664 4.11739 8.23999 4.11739 11.3333V14C4.11739 14.5467 3.64433 15 3.07387 15C2.50342 15 2.03036 14.5467 2.03036 14V11.3333C2.03036 7.22666 4.67399 4.25334 8.77848 3.76C9.15415 3.70667 9.58541 3.66666 10.0306 3.66666H22.5528C22.8867 3.66666 23.318 3.67999 23.7633 3.74666C27.8678 4.19999 30.5531 7.18666 30.5531 11.3333V13.2667C30.5531 13.8133 30.08 14.2667 29.5096 14.2667H26.6155C26.1286 14.2667 25.6835 14.44 25.3635 14.76C24.96 15.1333 24.765 15.64 24.8207 16.1467C24.8903 17.0267 25.7809 17.7333 26.7826 17.7333H29.5235C30.0939 17.7333 30.567 18.1867 30.567 18.7333V20.6667C30.567 25.2533 27.353 28.3333 22.5667 28.3333Z" fill="white"/>
</svg>
