<?xml version="1.0" encoding="UTF-8"?>
<svg xmlns="http://www.w3.org/2000/svg" xmlns:xlink="http://www.w3.org/1999/xlink" width="25px" height="25px" viewBox="0 0 25 31" version="1.1">
<defs>
<linearGradient id="linear0" gradientUnits="userSpaceOnUse" x1="23.997" y1="23.751" x2="36.303" y2="61.892" gradientTransform="matrix(0.480769,0,0,0.469697,0,-2.483758)">
<stop offset="0" style="stop-color:rgb(92.941176%,28.627451%,38.431373%);stop-opacity:1;"/>
<stop offset="1" style="stop-color:rgb(97.647059%,56.078431%,50.588235%);stop-opacity:1;"/>
</linearGradient>
<linearGradient id="linear1" gradientUnits="userSpaceOnUse" x1="20.334" y1="28.997" x2="31.578" y2="59.833" gradientTransform="matrix(0.480769,0,0,0.469697,0,-2.483758)">
<stop offset="0" style="stop-color:rgb(92.941176%,28.627451%,38.431373%);stop-opacity:1;"/>
<stop offset="1" style="stop-color:rgb(97.647059%,56.078431%,50.588235%);stop-opacity:1;"/>
</linearGradient>
<linearGradient id="linear2" gradientUnits="userSpaceOnUse" x1="19.01" y1="32.432" x2="26.939" y2="46.188" gradientTransform="matrix(0.480769,0,0,0.469697,0,-2.483758)">
<stop offset="0" style="stop-color:rgb(92.941176%,28.627451%,38.431373%);stop-opacity:1;"/>
<stop offset="1" style="stop-color:rgb(97.647059%,56.078431%,50.588235%);stop-opacity:1;"/>
</linearGradient>
<linearGradient id="linear3" gradientUnits="userSpaceOnUse" x1="20.369" y1="46.935" x2="26.162" y2="63.4" gradientTransform="matrix(0.480769,0,0,0.469697,0,-2.483758)">
<stop offset="0" style="stop-color:rgb(92.941176%,28.627451%,38.431373%);stop-opacity:1;"/>
<stop offset="1" style="stop-color:rgb(97.647059%,56.078431%,50.588235%);stop-opacity:1;"/>
</linearGradient>
<linearGradient id="linear4" gradientUnits="userSpaceOnUse" x1="30.567" y1="43.745" x2="37.207" y2="63.271" gradientTransform="matrix(0.480769,0,0,0.469697,0,-2.483758)">
<stop offset="0" style="stop-color:rgb(92.941176%,28.627451%,38.431373%);stop-opacity:1;"/>
<stop offset="1" style="stop-color:rgb(97.647059%,56.078431%,50.588235%);stop-opacity:1;"/>
</linearGradient>
<linearGradient id="linear5" gradientUnits="userSpaceOnUse" x1="39.135" y1="32.432" x2="31.206" y2="46.188" gradientTransform="matrix(0.480769,0,0,0.469697,0,-2.483758)">
<stop offset="0" style="stop-color:rgb(92.941176%,28.627451%,38.431373%);stop-opacity:1;"/>
<stop offset="1" style="stop-color:rgb(97.647059%,56.078431%,50.588235%);stop-opacity:1;"/>
</linearGradient>
<linearGradient id="linear6" gradientUnits="userSpaceOnUse" x1="39.401" y1="38.528" x2="41.008" y2="53.564" gradientTransform="matrix(0.480769,0,0,0.469697,0,-2.483758)">
<stop offset="0" style="stop-color:rgb(92.941176%,28.627451%,38.431373%);stop-opacity:1;"/>
<stop offset="1" style="stop-color:rgb(97.647059%,56.078431%,50.588235%);stop-opacity:1;"/>
</linearGradient>
<linearGradient id="linear7" gradientUnits="userSpaceOnUse" x1="15.184" y1="42.419" x2="22.335" y2="53.351" gradientTransform="matrix(0.480769,0,0,0.469697,0,-2.483758)">
<stop offset="0" style="stop-color:rgb(92.941176%,28.627451%,38.431373%);stop-opacity:1;"/>
<stop offset="1" style="stop-color:rgb(97.647059%,56.078431%,50.588235%);stop-opacity:1;"/>
</linearGradient>
<linearGradient id="linear8" gradientUnits="userSpaceOnUse" x1="29.072" y1="46.115" x2="29.638" y2="49.006" gradientTransform="matrix(0.480769,0,0,0.469697,0,-2.483758)">
<stop offset="0" style="stop-color:rgb(92.941176%,28.627451%,38.431373%);stop-opacity:1;"/>
<stop offset="1" style="stop-color:rgb(97.647059%,56.078431%,50.588235%);stop-opacity:1;"/>
</linearGradient>
<linearGradient id="linear9" gradientUnits="userSpaceOnUse" x1="21.302" y1="12.725" x2="27.83" y2="25.104" gradientTransform="matrix(0.480769,0,0,0.469697,0,-2.483758)">
<stop offset="0" style="stop-color:rgb(92.941176%,28.627451%,38.431373%);stop-opacity:1;"/>
<stop offset="1" style="stop-color:rgb(97.647059%,56.078431%,50.588235%);stop-opacity:1;"/>
</linearGradient>
<linearGradient id="linear10" gradientUnits="userSpaceOnUse" x1="-1.381" y1="14.281" x2="20.267" y2="29.382" gradientTransform="matrix(0.480769,0,0,0.469697,0,-2.483758)">
<stop offset="0" style="stop-color:rgb(92.941176%,28.627451%,38.431373%);stop-opacity:1;"/>
<stop offset="1" style="stop-color:rgb(97.647059%,56.078431%,50.588235%);stop-opacity:1;"/>
</linearGradient>
</defs>
<g id="surface1">
<path style=" stroke:none;fill-rule:nonzero;fill:url(#linear0);" d="M 13.976562 30.835938 C 20.101562 30.835938 25.066406 25.992188 25.066406 20.019531 C 25.066406 14.046875 20.101562 9.207031 13.976562 9.207031 C 7.851562 9.207031 2.886719 14.046875 2.886719 20.019531 C 2.886719 25.996094 7.851562 30.835938 13.976562 30.835938 Z M 13.976562 30.835938 "/>
<path style=" stroke:none;fill-rule:nonzero;fill:url(#linear1);" d="M 13.976562 9.207031 L 11.089844 9.207031 C 4.964844 9.207031 0 14.046875 0 20.019531 C 0 25.992188 4.964844 30.835938 11.089844 30.835938 L 13.976562 30.835938 C 20.101562 30.835938 25.066406 25.992188 25.066406 20.019531 C 25.066406 14.046875 20.101562 9.207031 13.976562 9.207031 Z M 13.976562 9.207031 "/>
<path style=" stroke:none;fill-rule:nonzero;fill:rgb(100%,100%,100%);fill-opacity:1;" d="M 13.976562 29.316406 C 19.242188 29.316406 23.507812 25.152344 23.507812 20.019531 C 23.507812 14.886719 19.242188 10.726562 13.976562 10.726562 C 8.714844 10.726562 4.449219 14.886719 4.449219 20.019531 C 4.449219 25.152344 8.714844 29.316406 13.976562 29.316406 Z M 13.976562 29.316406 "/>
<path style=" stroke:none;fill-rule:evenodd;fill:url(#linear2);" d="M 13.421875 18.148438 L 13.136719 12.917969 C 13.121094 12.640625 12.976562 12.386719 12.746094 12.226562 C 12.515625 12.066406 12.222656 12.019531 11.953125 12.09375 C 11.117188 12.328125 10.375 12.628906 9.730469 12.992188 C 9.089844 13.351562 8.453125 13.828125 7.824219 14.417969 C 7.621094 14.609375 7.519531 14.882812 7.542969 15.15625 C 7.570312 15.433594 7.726562 15.679688 7.964844 15.832031 L 12.464844 18.6875 C 12.660156 18.808594 12.910156 18.816406 13.113281 18.703125 C 13.3125 18.589844 13.433594 18.375 13.421875 18.148438 Z M 13.421875 18.148438 "/>
<path style=" stroke:none;fill-rule:evenodd;fill:url(#linear3);" d="M 13.417969 21.984375 L 13.132812 27.214844 C 13.117188 27.492188 12.972656 27.746094 12.742188 27.90625 C 12.511719 28.066406 12.21875 28.113281 11.949219 28.035156 C 11.113281 27.800781 10.371094 27.503906 9.726562 27.140625 C 9.085938 26.777344 8.449219 26.300781 7.820312 25.714844 C 7.617188 25.523438 7.515625 25.25 7.539062 24.976562 C 7.566406 24.699219 7.722656 24.453125 7.960938 24.300781 L 12.460938 21.445312 C 12.65625 21.324219 12.90625 21.316406 13.109375 21.429688 C 13.308594 21.542969 13.429688 21.757812 13.417969 21.984375 Z M 13.417969 21.984375 "/>
<path style=" stroke:none;fill-rule:evenodd;fill:url(#linear4);" d="M 14.507812 21.976562 L 14.792969 27.207031 C 14.804688 27.484375 14.949219 27.738281 15.179688 27.898438 C 15.410156 28.058594 15.703125 28.105469 15.976562 28.027344 C 16.8125 27.792969 17.554688 27.496094 18.195312 27.132812 C 18.839844 26.769531 19.476562 26.292969 20.101562 25.707031 C 20.308594 25.515625 20.410156 25.242188 20.382812 24.964844 C 20.355469 24.691406 20.203125 24.445312 19.964844 24.292969 L 15.460938 21.4375 C 15.265625 21.3125 15.019531 21.308594 14.816406 21.421875 C 14.617188 21.535156 14.496094 21.75 14.507812 21.976562 Z M 14.507812 21.976562 "/>
<path style=" stroke:none;fill-rule:evenodd;fill:url(#linear5);" d="M 14.53125 18.148438 L 14.816406 12.917969 C 14.832031 12.640625 14.976562 12.386719 15.207031 12.226562 C 15.4375 12.066406 15.730469 12.019531 16.003906 12.09375 C 16.839844 12.328125 17.578125 12.628906 18.222656 12.992188 C 18.867188 13.351562 19.5 13.828125 20.128906 14.417969 C 20.332031 14.609375 20.4375 14.882812 20.410156 15.15625 C 20.382812 15.433594 20.226562 15.679688 19.992188 15.832031 L 15.488281 18.6875 C 15.292969 18.808594 15.042969 18.816406 14.84375 18.703125 C 14.640625 18.589844 14.523438 18.375 14.53125 18.148438 Z M 14.53125 18.148438 "/>
<path style=" stroke:none;fill-rule:evenodd;fill:url(#linear6);" d="M 15.898438 19.511719 L 20.6875 17.136719 C 20.941406 17.011719 21.238281 17.003906 21.496094 17.121094 C 21.75 17.234375 21.941406 17.457031 22.011719 17.726562 C 22.21875 18.550781 22.324219 19.324219 22.324219 20.050781 C 22.324219 20.773438 22.21875 21.546875 22.011719 22.371094 C 21.941406 22.640625 21.753906 22.863281 21.496094 22.980469 C 21.238281 23.09375 20.941406 23.089844 20.6875 22.960938 L 15.898438 20.585938 C 15.691406 20.484375 15.5625 20.277344 15.5625 20.050781 C 15.5625 19.820312 15.691406 19.613281 15.898438 19.511719 Z M 15.898438 19.511719 "/>
<path style=" stroke:none;fill-rule:evenodd;fill:url(#linear7);" d="M 12.054688 19.511719 L 7.265625 17.136719 C 7.015625 17.011719 6.71875 17.003906 6.460938 17.121094 C 6.203125 17.234375 6.011719 17.457031 5.945312 17.726562 C 5.734375 18.550781 5.632812 19.324219 5.632812 20.050781 C 5.632812 20.773438 5.734375 21.546875 5.945312 22.371094 C 6.011719 22.640625 6.203125 22.863281 6.460938 22.980469 C 6.71875 23.09375 7.015625 23.089844 7.269531 22.960938 L 12.054688 20.585938 C 12.261719 20.484375 12.394531 20.277344 12.394531 20.050781 C 12.394531 19.820312 12.261719 19.613281 12.054688 19.511719 Z M 12.054688 19.511719 "/>
<path style=" stroke:none;fill-rule:nonzero;fill:url(#linear8);" d="M 13.976562 20.867188 C 14.207031 20.867188 14.425781 20.777344 14.589844 20.617188 C 14.753906 20.460938 14.84375 20.246094 14.84375 20.019531 C 14.84375 19.554688 14.453125 19.175781 13.976562 19.175781 C 13.5 19.175781 13.109375 19.554688 13.109375 20.019531 C 13.109375 20.488281 13.5 20.867188 13.976562 20.867188 Z M 13.976562 20.867188 "/>
<path style=" stroke:none;fill-rule:evenodd;fill:url(#linear9);" d="M 13.359375 0 C 11.359375 0.644531 10.066406 1.703125 9.488281 3.183594 C 8.859375 4.625 8.972656 6.269531 9.828125 8.105469 C 11.738281 7.429688 13.007812 6.363281 13.644531 4.902344 C 14.28125 3.441406 14.1875 1.804688 13.359375 0 Z M 13.359375 0 "/>
<path style=" stroke:none;fill-rule:evenodd;fill:url(#linear10);" d="M 3.644531 6.042969 C 4.789062 5.46875 5.933594 5.375 7.078125 5.769531 C 8.222656 6.164062 8.949219 7.03125 9.261719 8.367188 C 7.902344 8.890625 6.726562 8.945312 5.730469 8.535156 C 4.738281 8.121094 4.039062 7.292969 3.644531 6.042969 Z M 3.644531 6.042969 "/>
</g>
</svg>
